# xmcd
#
# Track frame offsets:
#  150
#  14641
#  27774
#  38637
#  51718
#  66273
#  78288
#  91584
#  104712
#  123542
#  133225
#  148343
#  164869
#  180134
#  193244
#  213422
#  228342
#  240583
#  253423
#  265896
#  270139
#  279556
#  287854
#  292739
#  302088
#  317124
#  320112
#
# Disc length: 4426 seconds
#
# Revision: 0
# Processed by: cddbd v1.5.1PL0 Copyright (c) Steve Scherf et al.
# Submitted via: Collectorz.com Music Collector 6.9
#
DISCID=a311481b
DTITLE=Various Artist - Honky Tonk 7
DYEAR=1900
DGENRE=
TTITLE0=Bap Kennedy - A Mansion on the Hill
TTITLE1=Bap Kennedy - Angel of Death
TTITLE2=Bap Kennedy - Honky Tonk Blues
TTITLE3=Bap Kennedy - I Saw the Light
TTITLE4=Bap Kennedy - I'll Never Get Out of This World
TTITLE5=Bap Kennedy - I'm So Lonesome I Could Cry
TTITLE6=Bap Kennedy - Long Gone Daddy
TTITLE7=Bap Kennedy - Lost Highway
TTITLE8=Lyle Lovett - Freind of the Devil
TTITLE9=Stormy Mondays and Elliott Murphy - Blue As the Night
TTITLE10=Todd Snider - Alright Guy
TTITLE11=Warren Zevon - Roland the Headless Thompson Gunner
TTITLE12=Warren Zevon - Werewolves of London
TTITLE13=Uncle Tupelo and Joe Ely - Are You Sure Hank Done It This Way
TTITLE14=Janis Joplin - Me And Bobbie Mcgee
TTITLE15=Joan Baez - The Night They Drove Old Dixie Down
TTITLE16=Johnny Cash - Give My Love To Rose
TTITLE17=Johnny Cash - The General Lee
TTITLE18=Johnny Cash and Bob Dylan - That's Alright Mama
TTITLE19=Rodney Carrington - Grandpa
TTITLE20=Rodney Carrington - Those Little Things That Piss Me Off
TTITLE21=Rodney Carrington - A Letter To My Penis
TTITLE22=Rodney Carrington - Who Put the Dick on the Snowman
TTITLE23=Rodney Carrington - Burning Sensation
TTITLE24=King Missile - Detachable Penis
TTITLE25=Monty Python - Penis Song
TTITLE26=Weird Al Yankovic - The Vagine Song
EXTD=
EXTT0=
EXTT1=
EXTT2=
EXTT3=
EXTT4=
EXTT5=
EXTT6=
EXTT7=
EXTT8=
EXTT9=
EXTT10=
EXTT11=
EXTT12=
EXTT13=
EXTT14=
EXTT15=
EXTT16=
EXTT17=
EXTT18=
EXTT19=
EXTT20=
EXTT21=
EXTT22=
EXTT23=
EXTT24=
EXTT25=
EXTT26=
PLAYORDER=
